<svg version="1.1" id="Layer_1" xmlns="http://www.w3.org/2000/svg" xmlns:xlink="http://www.w3.org/1999/xlink" x="0px" y="0px"
	 width="100%" viewBox="0 0 192 192" enable-background="new 0 0 192 192" xml:space="preserve">
<path fill="#FFFFFF" opacity="1.000000" stroke="none" 
	d="
M1.000000,118.000000 
	C1.000000,79.022293 1.000000,40.044582 1.000000,1.033436 
	C64.941116,1.033436 128.882263,1.033436 192.911697,1.033436 
	C192.911697,64.904442 192.911697,128.809052 192.911697,192.856827 
	C129.000214,192.85827 65.000160,192.856827 1.000000,192.856827 
	C1.000000,168.910019 1.000000,144.923660 1.342822,120.567993 
	C5.403934,118.801888 9.122222,117.405113 12.906713,116.403542 
	C16.313812,131.045593 24.307249,142.569519 34.014732,153.319519 
	C29.694410,157.692841 23.837099,160.322403 21.975002,166.339111 
	C22.348864,166.723663 22.722725,167.108231 23.096586,167.492783 
	C27.727346,163.613586 32.358105,159.734390 37.310001,155.996643 
	C38.812111,156.989761 40.027241,157.798172 41.168945,158.699570 
	C59.261742,172.984283 79.910149,178.547256 102.473038,174.852783 
	C123.769356,171.365723 140.811096,160.079163 153.725906,142.764648 
	C164.495331,128.326370 169.591248,112.144241 169.109924,94.027428 
	C168.842255,83.951591 166.299561,74.538895 163.318253,65.056816 
	C175.315491,53.343040 187.029877,41.791382 191.700241,25.209827 
	C190.489914,25.502455 189.647156,26.109077 188.995560,26.877741 
	C179.799652,37.725471 169.187866,46.800533 156.152466,52.783920 
	C148.879761,45.300064 142.432648,37.311043 134.564880,31.130503 
	C120.809181,20.324680 104.681137,16.698042 87.075043,16.755154 
	C65.660614,16.824615 48.178413,25.228354 33.364536,39.436623 
	C22.744572,49.622429 15.482154,62.412716 12.082923,76.952599 
	C9.302946,88.843681 8.776569,100.845024 11.660490,112.891373 
	C7.864474,114.656357 4.432237,116.328178 1.000000,118.000000 
z"/>
<path fill="#F9391D" opacity="1.000000" stroke="none" 
	d="
M1.000000,118.333328 
	C4.432237,116.328178 7.864474,114.656357 11.948770,112.942413 
	C12.990232,112.873390 13.379635,112.846497 14.007996,112.961105 
	C14.487824,113.375618 14.728697,113.648628 14.716692,114.094727 
	C13.922715,114.847984 13.381614,115.428169 12.840511,116.008347 
	C9.122222,117.405113 5.403934,118.801888 1.342822,120.099335 
	C1.000000,119.555557 1.000000,119.111107 1.000000,118.333328 
z"/>
<path fill="#0D3E91" opacity="1.000000" stroke="none" 
	d="
M163.004730,65.197357 
	C166.299561,74.538895 168.842255,83.951591 169.109924,94.027428 
	C169.591248,112.144241 164.495331,128.326370 153.725906,142.764648 
	C140.811096,160.079163 123.769356,171.365723 102.473038,174.852783 
	C79.910149,178.547256 59.261742,172.984283 41.168945,158.699570 
	C40.027241,157.798172 38.812111,156.989761 37.321468,155.685257 
	C37.340744,154.484467 37.669689,153.736542 38.321091,152.886841 
	C44.617672,148.082916 50.441662,143.172531 56.603035,138.730057 
	C64.734741,132.866959 73.131058,127.370880 81.625214,122.034645 
	C84.075165,124.742111 86.189545,127.272476 88.633636,129.429153 
	C89.296417,130.014008 90.955429,129.469849 92.157196,129.443878 
	C91.846924,128.315186 91.887650,126.819710 91.161888,126.125130 
	C88.792786,123.857803 86.144142,121.882576 83.820007,119.522675 
	C88.644913,116.306107 93.252846,113.361839 97.976868,110.772202 
	C101.316765,111.166756 104.551750,111.049500 107.762138,111.277969 
	C115.427345,111.823441 120.775757,109.026733 123.389336,102.949203 
	C124.924187,104.729485 126.116493,106.634972 127.196693,108.881882 
	C127.417587,109.805664 127.750572,110.388023 128.140320,111.284798 
	C128.652267,112.382416 129.107483,113.165619 129.562683,113.948822 
	C129.810883,113.850868 130.059082,113.752914 130.307266,113.654961 
	C130.212448,112.774185 130.117615,111.893402 130.425354,110.892502 
	C132.836227,110.805389 134.422577,110.719688 133.698441,107.790466 
	C133.433563,106.719048 134.448669,104.289963 135.076126,104.219139 
	C137.815659,103.909927 140.809723,103.725586 143.314789,104.614052 
	C144.202576,104.928917 143.963058,108.422203 144.258713,110.616791 
	C148.724091,110.616791 153.472870,110.616791 158.355469,110.616791 
	C155.466049,102.704094 152.392471,95.043510 149.914322,87.194923 
	C148.592209,83.007629 146.612289,80.629417 142.267303,80.772446 
	C149.328735,75.371796 156.166733,70.284576 163.004730,65.197357 
z"/>
<path fill="#0D3E91" opacity="1.000000" stroke="none" 
	d="
M13.769038,112.819595 
	C13.379635,112.846497 12.990232,112.873390 12.312548,112.849243 
	C8.776569,100.845024 9.302946,88.843681 12.082923,76.952599 
	C15.482154,62.412716 22.744572,49.622429 33.364536,39.436623 
	C48.178413,25.228354 65.660614,16.824615 87.075043,16.755154 
	C104.681137,16.698042 120.809181,20.324680 134.564880,31.130503 
	C142.432648,37.311043 148.879761,45.300064 156.093689,53.145805 
	C154.868317,54.942532 153.678009,56.410805 152.137802,57.140491 
	C138.464767,63.618172 124.729782,69.965103 110.680908,76.332031 
	C109.912613,76.269341 109.476509,76.225220 109.004349,75.858467 
	C108.376778,75.024170 107.785263,74.512497 107.064590,73.682510 
	C101.957733,68.483231 96.980026,63.602261 91.916275,58.389595 
	C89.630371,56.741657 87.380646,55.501236 85.240746,54.093807 
	C80.386116,50.900860 76.840492,45.343246 70.004662,45.739834 
	C69.743233,45.755001 69.440445,45.425140 69.190498,45.215946 
	C64.208519,41.046196 59.281067,44.045944 54.891270,46.057201 
	C53.140106,46.859531 52.196640,50.639923 51.910923,53.179974 
	C51.257435,58.989532 51.157753,64.868797 51.054333,70.723656 
	C51.041069,71.474564 52.342785,72.248703 52.991405,73.410492 
	C53.462318,75.850670 53.977161,77.892433 54.177536,80.030869 
	C53.565804,80.440529 53.268543,80.753532 52.528366,81.031723 
	C50.046677,80.996910 48.007904,80.996910 46.670334,80.996910 
	C46.670334,86.697662 46.670334,91.700752 46.670334,97.686333 
	C43.525902,92.364494 41.018780,87.859337 38.215374,83.546783 
	C37.440987,82.355530 35.857693,81.142105 34.517712,80.977119 
	C31.437069,80.597809 28.277821,80.856911 26.229624,80.856911 
	C26.229624,89.666794 26.229624,98.007332 25.849251,106.467194 
	C21.568933,108.664207 17.668985,110.741905 13.769038,112.819595 
M74.142479,39.589287 
	C75.425896,40.418896 76.709312,41.248505 77.992729,42.078114 
	C78.305473,41.370110 78.618225,40.662102 78.930977,39.954098 
	C77.368301,39.610821 75.805618,39.267544 74.142479,39.589287 
z"/>
<path fill="#103F91" opacity="1.000000" stroke="none" 
	d="
M12.906713,116.403549 
	C13.381614,115.428169 13.922715,114.847984 15.088320,114.081436 
	C18.803738,112.622620 21.894653,111.350174 25.411152,110.050659 
	C27.908945,109.405846 29.981153,108.788101 32.488052,108.022385 
	C34.917057,107.241707 36.911373,106.608994 39.205830,106.285873 
	C42.644325,113.081116 48.342552,109.027420 52.528694,110.304764 
	C52.261402,107.362770 52.035366,104.874855 52.236717,102.313019 
	C56.740200,101.318100 60.816296,100.397110 64.844757,99.922813 
	C63.663483,103.544098 62.529854,106.718689 61.369968,109.966797 
	C63.321350,109.966797 65.434021,109.966797 67.722511,109.966797 
	C67.722511,108.150642 67.722511,106.497162 67.722511,104.344864 
	C69.155777,105.543968 70.089577,106.325211 70.992744,107.468079 
	C73.550423,110.947136 76.138741,114.064560 78.742607,117.513962 
	C76.732101,119.470581 74.691032,121.076904 72.682457,122.722878 
	C60.782646,132.474411 48.890366,142.235138 36.713135,152.111221 
	C35.674568,152.487762 34.918427,152.745850 34.162285,153.003922 
	C24.307249,142.569519 16.313812,131.045593 12.906713,116.403549 
z"/>
<path fill="#F53D25" opacity="1.000000" stroke="none" 
	d="
M111.013077,76.350616 
	C124.729782,69.965103 138.464767,63.618172 152.137802,57.140491 
	C153.678009,56.410805 154.868317,54.942532 156.279663,53.454876 
	C169.187866,46.800533 179.799652,37.725471 188.995560,26.877741 
	C189.647156,26.109077 190.489914,25.502455 191.700241,25.209827 
	C187.029877,41.791382 175.315491,53.343040 163.318253,65.056816 
	C156.166733,70.284576 149.328735,75.371796 142.013397,80.877426 
	C139.055161,83.033012 136.574249,84.770195 133.751373,86.646599 
	C129.663086,89.284660 125.916756,91.783493 121.894768,94.136261 
	C121.411346,93.980667 121.203583,93.971130 120.991577,93.988243 
	C120.987328,94.014885 121.040710,94.022713 121.018463,93.653122 
	C120.873169,93.069496 120.750137,92.855476 120.740448,92.318451 
	C128.391342,86.379784 135.928909,80.764122 143.466461,75.148468 
	C143.164948,74.677925 142.863434,74.207382 142.561920,73.736832 
	C135.178009,76.832954 127.794106,79.929077 120.196762,82.652428 
	C117.325394,81.676521 114.667450,81.073387 112.006958,80.161880 
	C111.673973,78.685883 111.343529,77.518250 111.013077,76.350616 
z"/>
<path fill="#F83A1F" opacity="1.000000" stroke="none" 
	d="
M34.014732,153.319519 
	C34.918427,152.745850 35.674568,152.487762 36.927719,152.224731 
	C37.694729,152.417313 37.886032,152.673584 37.998634,152.988602 
	C37.669689,153.736542 37.340744,154.484467 37.000332,155.543793 
	C32.358105,159.734390 27.727346,163.613586 23.096586,167.492783 
	C22.722725,167.108231 22.348864,166.723663 21.975002,166.339111 
	C23.837099,160.322403 29.694410,157.692841 34.014732,153.319519 
z"/>
<path fill="#D1433B" opacity="1.000000" stroke="none" 
	d="
M24.985565,110.077728 
	C21.894653,111.350174 18.803738,112.622620 15.341195,113.908356 
	C14.728697,113.648628 14.487824,113.375618 14.007996,112.961105 
	C17.668985,110.741905 21.568933,108.664207 25.829353,106.876312 
	C25.788404,108.136650 25.386984,109.107185 24.985565,110.077728 
z"/>
<path fill="#F2F4F8" opacity="1.000000" stroke="none" 
	d="
M134.093338,86.507370 
	C136.574249,84.770195 139.055161,83.033012 141.789978,81.190849 
	C146.612289,80.629417 148.592209,83.007629 149.914322,87.194923 
	C152.392471,95.043510 155.466049,102.704094 158.355469,110.616791 
	C153.472870,110.616791 148.724091,110.616791 144.258713,110.616791 
	C143.963058,108.422203 144.202576,104.928917 143.314789,104.614052 
	C140.809723,103.725586 137.815659,103.909927 135.076126,104.219139 
	C134.448669,104.289963 133.433563,106.719048 133.698441,107.790466 
	C134.422577,110.719688 132.836227,110.805389 130.102386,110.870827 
	C128.945740,110.969650 128.514648,110.970016 128.083557,110.970383 
	C127.750572,110.388023 127.417587,109.805664 127.430222,108.469467 
	C127.864182,107.413055 127.952515,107.110474 128.397110,106.803925 
	C130.533356,100.035759 132.313354,93.271568 134.093338,86.507370 
M137.129044,92.977562 
	C136.490204,95.170082 135.851379,97.362602 135.154999,99.752609 
	C137.641434,99.752609 139.802292,99.752609 142.514359,99.752609 
	C141.131500,96.300354 139.954834,93.362854 138.557281,89.873955 
	C137.927322,91.131340 137.636948,91.710945 137.129044,92.977562 
z"/>
<path fill="#E64231" opacity="1.000000" stroke="none" 
	d="
M38.321091,152.886841 
	C37.886032,152.673584 37.694729,152.417313 37.210144,152.106277 
	C48.890366,142.235138 60.782646,132.474411 72.682457,122.722878 
	C74.691032,121.076904 76.732101,119.470581 79.102356,117.443573 
	C80.141708,116.852287 80.836876,116.663368 81.844818,116.367737 
	C84.513359,114.629219 86.869110,112.997398 89.461884,111.239807 
	C89.949486,110.857010 90.200066,110.599976 90.715050,110.266159 
	C91.407303,109.871078 91.835152,109.552773 92.585075,109.121964 
	C97.434128,106.048798 101.961098,103.088120 106.810463,100.040405 
	C110.397568,97.802437 113.662277,95.651497 117.219658,93.444031 
	C118.286949,93.138893 119.061562,92.890282 119.853424,92.726173 
	C119.870674,92.810669 119.998306,92.926666 120.005005,93.248428 
	C120.354698,93.721031 120.697708,93.871872 121.040710,94.022713 
	C121.040710,94.022713 120.987328,94.014885 120.808235,94.229507 
	C120.073517,95.172905 119.517883,95.901680 118.630859,96.757889 
	C115.990707,98.503899 113.681961,100.122467 111.075241,101.834030 
	C108.538307,103.397804 106.299355,104.868576 103.729248,106.480240 
	C101.552322,107.886612 99.706551,109.152100 97.860779,110.417587 
	C93.252846,113.361839 88.644913,116.306107 83.520287,119.617348 
	C82.473602,120.561897 81.943611,121.139458 81.413628,121.717026 
	C73.131058,127.370880 64.734741,132.866959 56.603035,138.730057 
	C50.441662,143.172531 44.617672,148.082916 38.321091,152.886841 
z"/>
<path fill="#F3F3F6" opacity="1.000000" stroke="none" 
	d="
M111.373222,101.741028 
	C113.681961,100.122467 115.990707,98.503899 118.966667,96.897072 
	C120.771515,98.964012 121.909149,101.019218 123.046783,103.074417 
	C120.775757,109.026733 115.427345,111.823441 107.762138,111.277969 
	C104.551750,111.049500 101.316765,111.166756 97.976868,110.772209 
	C99.706551,109.152100 101.552322,107.886612 104.126526,106.678040 
	C106.620598,106.788681 108.463249,107.191864 110.135834,106.823303 
	C113.604408,106.058998 114.734787,104.352272 111.373222,101.741028 
z"/>
<path fill="#E1E6F0" opacity="1.000000" stroke="none" 
	d="
M81.625214,122.034645 
	C81.943611,121.139458 82.473602,120.561897 83.303307,119.889656 
	C86.144142,121.882576 88.792786,123.857803 91.161888,126.125130 
	C91.887650,126.819710 91.846924,128.315186 92.157196,129.443878 
	C90.955429,129.469849 89.296417,130.014008 88.633636,129.429153 
	C86.189545,127.272476 84.075165,124.742111 81.625214,122.034645 
z"/>
<path fill="#C1C9DE" opacity="1.000000" stroke="none" 
	d="
M123.389336,102.949203 
	C121.909149,101.019218 120.771515,98.964012 119.298065,96.769630 
	C119.517883,95.901680 120.073517,95.172905 120.812485,94.202866 
	C121.203583,93.971130 121.411346,93.980667 121.990021,94.447083 
	C124.254242,98.871948 126.147545,102.839920 128.040848,106.807899 
	C127.952515,107.110474 127.864182,107.413055 127.542320,108.128052 
	C126.116493,106.634972 124.924187,104.729485 123.389336,102.949203 
z"/>
<path fill="#C1C9DE" opacity="1.000000" stroke="none" 
	d="
M128.140320,111.284798 
	C128.514648,110.970016 128.945740,110.969650 129.699799,110.990952 
	C130.117615,111.893402 130.212448,112.774185 130.307266,113.654961 
	C130.059082,113.752914 129.810883,113.850868 129.562683,113.948822 
	C129.107483,113.165619 128.652267,112.382416 128.140320,111.284798 
z"/>
<path fill="#124293" opacity="1.000000" stroke="none" 
	d="
M107.193748,74.000824 
	C107.785263,74.512497 108.376778,75.024170 108.672890,75.972092 
	C106.658554,77.284569 105.006142,78.340904 103.208763,79.004692 
	C96.708000,81.405479 90.158501,83.674339 83.419174,85.715668 
	C82.412384,82.165390 80.692566,80.472527 76.975060,80.957993 
	C74.085617,81.335320 71.107483,81.033447 69.240372,81.033447 
	C68.437653,84.880676 67.740898,88.220047 66.637161,91.638779 
	C65.154778,91.796432 64.079384,91.874718 62.961536,91.609833 
	C61.593185,89.471886 60.267288,87.677094 58.935028,85.510628 
	C56.964222,81.096657 54.999783,77.054367 53.035339,73.012077 
	C52.342785,72.248703 51.041069,71.474564 51.054333,70.723656 
	C51.157753,64.868797 51.257435,58.989532 51.910923,53.179974 
	C52.196640,50.639923 53.140106,46.859531 54.891270,46.057201 
	C59.281067,44.045944 64.208519,41.046196 69.190498,45.215946 
	C69.440445,45.425140 69.743233,45.755001 70.004662,45.739834 
	C76.840492,45.343246 80.386116,50.900860 85.240746,54.093807 
	C87.380646,55.501236 89.630371,56.741657 91.644135,58.584152 
	C91.559021,59.699364 91.449150,60.495071 91.793076,60.845860 
	C96.053032,65.190727 100.345337,69.505997 104.736794,73.716789 
	C105.210777,74.171272 106.358536,73.923073 107.193748,74.000824 
z"/>
<path fill="#F6F7FA" opacity="1.000000" stroke="none" 
	d="
M25.411150,110.050659 
	C25.386984,109.107185 25.788404,108.136650 26.209724,106.756996 
	C26.229624,98.007332 26.229624,89.666794 26.229624,80.856911 
	C28.277821,80.856911 31.437069,80.597809 34.517712,80.977119 
	C35.857693,81.142105 37.440987,82.355530 38.215374,83.546783 
	C41.018780,87.859337 43.525902,92.364494 46.670334,97.686333 
	C46.670334,91.700752 46.670334,86.697662 46.670334,80.996910 
	C48.007904,80.996910 50.046677,80.996910 52.419556,81.394836 
	C52.363194,86.622932 51.972729,91.453094 51.479904,96.653107 
	C51.521477,98.810959 51.665401,100.598946 51.809330,102.386940 
	C52.035366,104.874855 52.261402,107.362770 52.528694,110.304764 
	C48.342552,109.027420 42.644325,113.081116 39.195290,106.031509 
	C38.104820,104.241074 37.325035,103.014610 36.433273,101.442398 
	C34.648335,98.170616 32.975380,95.244568 31.302422,92.318527 
	C30.885883,92.524429 30.469347,92.730331 30.052811,92.936241 
	C30.248981,96.676476 30.445154,100.416710 30.563339,104.440437 
	C31.008024,105.872734 31.530691,107.021545 32.053360,108.170349 
	C29.981153,108.788101 27.908945,109.405846 25.411150,110.050659 
z"/>
<path fill="#F1452E" opacity="1.000000" stroke="none" 
	d="
M83.627403,85.992996 
	C90.158501,83.674339 96.708000,81.405479 103.208763,79.004692 
	C105.006142,78.340904 106.658554,77.284569 108.708939,76.294724 
	C109.476509,76.225220 109.912613,76.269341 110.680901,76.332039 
	C111.343529,77.518250 111.673973,78.685883 111.591805,80.260994 
	C100.361076,82.322990 98.905739,83.403259 97.121948,90.923325 
	C93.329109,92.001366 89.886856,92.998749 86.263229,93.717438 
	C85.263702,90.956825 84.445549,88.474907 83.627403,85.992996 
z"/>
<path fill="#28509A" opacity="1.000000" stroke="none" 
	d="
M51.582260,96.283257 
	C51.972729,91.453094 52.363194,86.622932 52.862473,81.429649 
	C53.268543,80.753532 53.565804,80.440529 54.366695,80.290359 
	C56.227348,82.262901 57.584370,84.072609 58.941395,85.882309 
	C60.267288,87.677094 61.593185,89.471886 62.590302,91.640076 
	C58.701775,93.436737 55.142017,94.859993 51.582260,96.283257 
z"/>
<path fill="#B7C5DE" opacity="1.000000" stroke="none" 
	d="
M107.064590,73.682510 
	C106.358536,73.923073 105.210777,74.171272 104.736794,73.716789 
	C100.345337,69.505997 96.053032,65.190727 91.793076,60.845860 
	C91.449150,60.495071 91.559021,59.699364 91.730171,58.915848 
	C96.980026,63.602261 101.957733,68.483231 107.064590,73.682510 
z"/>
<path fill="#BDCAE1" opacity="1.000000" stroke="none" 
	d="
M58.935028,85.510628 
	C57.584370,84.072609 56.227348,82.262901 54.681168,80.193703 
	C53.977161,77.892433 53.462318,75.850670 52.991405,73.410492 
	C54.999783,77.054367 56.964222,81.096657 58.935028,85.510628 
z"/>
<path fill="#124293" opacity="1.000000" stroke="none" 
	d="
M74.192711,39.256779 
	C75.805618,39.267544 77.368301,39.610821 78.930977,39.954098 
	C78.618225,40.662102 78.305473,41.370110 77.992729,42.078114 
	C76.709312,41.248505 75.425896,40.418896 74.192711,39.256779 
z"/>
<path fill="#F7F6F9" opacity="1.000000" stroke="none" 
	d="
M83.419174,85.715668 
	C84.445549,88.474907 85.263702,90.956825 86.324417,94.115852 
	C88.465652,99.606796 90.364319,104.420631 92.262993,109.234459 
	C91.835152,109.552773 91.407303,109.871078 90.335876,110.198013 
	C89.442589,110.259216 89.192879,110.311783 88.492508,110.294868 
	C84.671524,110.230721 81.301186,110.236046 77.748886,109.930466 
	C77.528175,109.382576 77.489433,109.145569 77.742157,108.542709 
	C78.732780,105.553452 78.534851,103.596291 75.088043,103.421616 
	C72.412437,103.286026 70.405861,103.572411 71.022697,107.029755 
	C70.989624,107.043358 71.023376,107.106445 71.023376,107.106445 
	C70.089577,106.325211 69.155777,105.543968 67.722511,104.344864 
	C67.722511,106.497162 67.722511,108.150642 67.722511,109.966797 
	C65.434021,109.966797 63.321350,109.966797 61.369968,109.966797 
	C62.529854,106.718689 63.663483,103.544098 64.983643,99.678955 
	C65.794838,96.512070 66.419495,94.035744 67.044144,91.559418 
	C67.740898,88.220047 68.437653,84.880676 69.240372,81.033447 
	C71.107483,81.033447 74.085617,81.335320 76.975060,80.957993 
	C80.692566,80.472527 82.412384,82.165390 83.419174,85.715668 
M72.434967,90.245758 
	C71.402824,92.972839 70.370682,95.699928 68.938637,99.483627 
	C72.041862,98.475555 73.554810,97.984085 75.476151,97.359940 
	C74.600525,95.031937 73.792236,92.882950 72.434967,90.245758 
z"/>
<path fill="#F04530" opacity="1.000000" stroke="none" 
	d="
M66.637161,91.638779 
	C66.419495,94.035744 65.794838,96.512070 65.031281,99.232254 
	C60.816296,100.397110 56.740200,101.318100 52.236717,102.313019 
	C51.665401,100.598946 51.521477,98.810959 51.479904,96.653107 
	C55.142017,94.859993 58.701775,93.436737 62.632759,91.983238 
	C64.079384,91.874718 65.154778,91.796432 66.637161,91.638779 
z"/>
<path fill="#3C63A6" opacity="1.000000" stroke="none" 
	d="
M77.450691,108.908554 
	C77.489433,109.145569 77.528175,109.382576 77.648239,110.201591 
	C78.997055,112.680550 80.264549,114.577492 81.532036,116.474442 
	C80.836876,116.663368 80.141708,116.852287 79.086792,117.111595 
	C76.138741,114.064560 73.550423,110.947136 70.992744,107.468079 
	C71.023376,107.106445 70.989624,107.043358 71.380547,107.005264 
	C73.664543,107.614296 75.557617,108.261421 77.450691,108.908554 
z"/>
<path fill="#E84937" opacity="1.000000" stroke="none" 
	d="
M36.545254,101.788139 
	C37.325035,103.014610 38.104820,104.241074 38.895142,105.721909 
	C36.911373,106.608994 34.917057,107.241707 32.488052,108.022385 
	C31.530691,107.021545 31.008024,105.872734 30.888329,104.354919 
	C33.042618,103.253319 34.793938,102.520729 36.545254,101.788139 
z"/>
<path fill="#F7F2F4" opacity="1.000000" stroke="none" 
	d="
M97.472542,90.842667 
	C98.905739,83.403259 100.361076,82.322990 111.594345,80.569359 
	C114.667450,81.073387 117.325394,81.676521 120.102112,83.040497 
	C120.119766,85.127922 120.018646,86.454521 119.616814,87.674095 
	C117.561043,87.541252 116.158890,87.494606 114.360428,86.263741 
	C112.748428,85.160492 109.416084,86.570885 106.842712,86.872322 
	C106.829239,87.539749 106.815765,88.207176 106.802292,88.874603 
	C110.177193,90.416588 113.552094,91.958572 116.926987,93.500557 
	C113.662277,95.651497 110.397568,97.802437 106.476898,99.842865 
	C101.426262,98.282875 98.285202,95.656075 97.472542,90.842667 
z"/>
<path fill="#23438C" opacity="1.000000" stroke="none" 
	d="
M119.917534,87.781120 
	C120.018646,86.454521 120.119766,85.127922 120.315536,83.413254 
	C127.794106,79.929077 135.178009,76.832954 142.561920,73.736832 
	C142.863434,74.207382 143.164948,74.677925 143.466461,75.148468 
	C135.928909,80.764122 128.391342,86.379784 120.578415,92.378304 
	C120.303055,92.761169 119.998306,92.926666 119.998306,92.926666 
	C119.998306,92.926666 119.870674,92.810669 119.761780,92.442085 
	C119.741096,90.642708 119.829315,89.211914 119.917534,87.781120 
z"/>
<path fill="#1C4693" opacity="1.000000" stroke="none" 
	d="
M128.397110,106.803925 
	C126.147545,102.839920 124.254242,98.871948 122.265686,94.593140 
	C125.916756,91.783493 129.663086,89.284660 133.751373,86.646599 
	C132.313354,93.271568 130.533356,100.035759 128.397110,106.803925 
z"/>
<path fill="#C1C9DE" opacity="1.000000" stroke="none" 
	d="
M120.005005,93.248428 
	C119.998306,92.926666 120.303055,92.761169 120.465080,92.701309 
	C120.750137,92.855476 120.873169,93.069496 121.018463,93.653122 
	C120.697708,93.871872 120.354698,93.721031 120.005005,93.248428 
z"/>
<path fill="#25519C" opacity="1.000000" stroke="none" 
	d="
M137.237793,92.634048 
	C137.636948,91.710945 137.927322,91.131340 138.557281,89.873955 
	C139.954834,93.362854 141.131500,96.300354 142.514359,99.752609 
	C139.802292,99.752609 137.641434,99.752609 135.154999,99.752609 
	C135.851379,97.362602 136.490204,95.170082 137.237793,92.634048 
z"/>
<path fill="#184392" opacity="1.000000" stroke="none" 
	d="
M97.121948,90.923325 
	C98.285202,95.656075 101.426262,98.282875 106.154510,99.929901 
	C101.961098,103.088120 97.434128,106.048798 92.585075,109.121964 
	C90.364319,104.420631 88.465652,99.606796 86.505798,94.394547 
	C89.886856,92.998749 93.329109,92.001366 97.121948,90.923325 
z"/>
<path fill="#264790" opacity="1.000000" stroke="none" 
	d="
M119.616814,87.674095 
	C119.829315,89.211914 119.741096,90.642708 119.744530,92.357590 
	C119.061562,92.890282 118.286949,93.138893 117.219658,93.444031 
	C113.552094,91.958572 110.177193,90.416588 106.802292,88.874603 
	C106.815765,88.207176 106.829239,87.539749 106.842712,86.872322 
	C109.416084,86.570885 112.748428,85.160492 114.360428,86.263741 
	C116.158890,87.494606 117.561043,87.541252 119.616814,87.674095 
z"/>
<path fill="#234690" opacity="1.000000" stroke="none" 
	d="
M81.844818,116.367737 
	C80.264549,114.577492 78.997055,112.680550 77.830208,110.512482 
	C81.301186,110.236046 84.671524,110.230721 88.534393,110.553215 
	C89.092911,111.042557 89.158890,111.204071 89.224869,111.365585 
	C86.869110,112.997398 84.513359,114.629219 81.844818,116.367737 
z"/>
<path fill="#2A4B92" opacity="1.000000" stroke="none" 
	d="
M111.075241,101.834030 
	C114.734787,104.352272 113.604408,106.058998 110.135834,106.823303 
	C108.463249,107.191864 106.620598,106.788681 104.457680,106.537148 
	C106.299355,104.868576 108.538307,103.397804 111.075241,101.834030 
z"/>
<path fill="#3C63A6" opacity="1.000000" stroke="none" 
	d="
M89.461884,111.239807 
	C89.158890,111.204071 89.092911,111.042557 88.985046,110.622688 
	C89.192879,110.311783 89.442589,110.259216 90.071472,110.274796 
	C90.200066,110.599976 89.949486,110.857010 89.461884,111.239807 
z"/>
<path fill="#375B9F" opacity="1.000000" stroke="none" 
	d="
M36.433273,101.442398 
	C34.793938,102.520729 33.042618,103.253319 30.966312,104.071426 
	C30.445154,100.416710 30.248981,96.676476 30.052811,92.936241 
	C30.469347,92.730331 30.885883,92.524429 31.302422,92.318527 
	C32.975380,95.244568 34.648335,98.170616 36.433273,101.442398 
z"/>
<path fill="#EC503E" opacity="1.000000" stroke="none" 
	d="
M72.709457,90.489868 
	C73.792236,92.882950 74.600525,95.031937 75.476151,97.359940 
	C73.554810,97.984085 72.041862,98.475555 68.938637,99.483627 
	C70.370682,95.699928 71.402824,92.972839 72.709457,90.489868 
z"/>
<path fill="#103F91" opacity="1.000000" stroke="none" 
	d="
M77.742157,108.542702 
	C75.557617,108.261421 73.664543,107.614296 71.413620,106.991653 
	C70.405861,103.572411 72.412437,103.286026 75.088043,103.421616 
	C78.534851,103.596291 78.732780,105.553452 77.742157,108.542702 
z"/>
</svg>